<svg width="64" height="64" viewBox="0 0 64 64" fill="none" xmlns="http://www.w3.org/2000/svg">
<mask id="mask0_13_95" style="mask-type:alpha" maskUnits="userSpaceOnUse" x="0" y="0" width="64" height="64">
<rect x="0.5" y="0.5" width="63" height="63" rx="31.5" fill="#FFFDFD" stroke="#323649"/>
</mask>
<g mask="url(#mask0_13_95)">
<rect x="1" y="1" width="62" height="62" rx="31" fill="#FFFDFD" stroke="#323649" stroke-width="2"/>
<path d="M25.2974 63.8C23.6641 65.3867 21.8674 66.6 19.9074 67.44C17.9474 68.28 15.7307 68.7 13.2574 68.7C9.66405 68.7 6.84072 67.7667 4.78738 65.9C2.73405 64.0333 1.70738 61.5833 1.70738 58.55C1.70738 55.9833 2.43072 53.79 3.87738 51.97C5.37072 50.15 7.51738 48.7033 10.3174 47.63C13.1641 46.5567 16.6174 45.9267 20.6774 45.74L25.2274 45.39C25.5074 45.3433 25.7641 45.25 25.9974 45.11C26.2307 44.97 26.3474 44.7133 26.3474 44.34V42.59C26.3474 40.3033 25.6474 38.5067 24.2474 37.2C22.8474 35.8467 20.9341 35.17 18.5074 35.17C16.6874 35.17 15.0074 35.59 13.4674 36.43C11.9274 37.27 10.5507 38.5767 9.33738 40.35C9.19738 40.5833 9.05738 40.7467 8.91738 40.84C8.77738 40.9333 8.52072 40.9333 8.14738 40.84L3.38738 39.44C3.20072 39.3467 3.06072 39.23 2.96738 39.09C2.92072 38.9033 2.99072 38.5767 3.17738 38.11C4.53072 35.59 6.51405 33.6533 9.12739 32.3C11.7874 30.9 15.0307 30.2 18.8574 30.2C22.2174 30.2 24.9707 30.69 27.1174 31.67C29.2641 32.6033 30.8507 33.98 31.8774 35.8C32.9507 37.5733 33.4874 39.6733 33.4874 42.1V66.81C33.4874 67.2767 33.3941 67.6033 33.2074 67.79C33.0674 67.93 32.8107 68 32.4374 68H27.6774C27.3507 68 27.0941 67.8833 26.9074 67.65C26.7207 67.37 26.6041 67.02 26.5574 66.6L26.4874 63.94C26.3474 63.1933 25.9507 63.1467 25.2974 63.8ZM26.3474 50.57C26.3474 49.7767 26.0207 49.4267 25.3674 49.52L21.5874 49.8C19.7207 49.8933 18.0174 50.15 16.4774 50.57C14.9374 50.9433 13.6074 51.4567 12.4874 52.11C11.4141 52.7633 10.5507 53.5567 9.89738 54.49C9.29072 55.3767 8.98738 56.4267 8.98738 57.64C8.98738 59.46 9.61738 60.9067 10.8774 61.98C12.1841 63.0067 13.9341 63.52 16.1274 63.52C17.5274 63.52 18.8341 63.2867 20.0474 62.82C21.3074 62.3067 22.4041 61.6767 23.3374 60.93C24.2707 60.1367 24.9941 59.32 25.5074 58.48C26.0674 57.64 26.3474 56.8233 26.3474 56.03V50.57ZM10.8074 15.92C11.0407 15.4067 11.3674 15.2433 11.7874 15.43L28.0974 22.01C28.5174 22.1967 28.6341 22.57 28.4474 23.13L27.8174 24.95C27.7241 25.2767 27.5841 25.4867 27.3974 25.58C27.2107 25.6267 26.9074 25.6267 26.4874 25.58L10.4574 20.89C9.66405 20.6567 9.38405 20.19 9.61739 19.49L10.8074 15.92ZM35.3604 52.04C35.3604 54.14 35.8504 56.0533 36.8304 57.78C37.8571 59.46 39.2104 60.8133 40.8904 61.84C42.6171 62.82 44.5304 63.31 46.6304 63.31C48.7771 63.31 50.6904 62.8667 52.3704 61.98C54.0504 61.0933 55.5904 59.7167 56.9904 57.85C57.1304 57.6633 57.2704 57.57 57.4104 57.57C57.5504 57.5233 57.7604 57.57 58.0404 57.71L61.6104 59.39C62.1238 59.6233 62.1704 59.9967 61.7504 60.51C60.4438 62.4233 58.9971 63.9867 57.4104 65.2C55.8704 66.4133 54.1438 67.3 52.2304 67.86C50.3171 68.42 48.1938 68.7 45.8604 68.7C42.3138 68.7 39.1871 67.9067 36.4804 66.32C33.7738 64.7333 31.6271 62.5167 30.0404 59.67C28.5004 56.8233 27.7304 53.5567 27.7304 49.87C27.7304 45.81 28.5238 42.3333 30.1104 39.44C31.6971 36.5 33.8438 34.2367 36.5504 32.65C39.3038 31.0167 42.3604 30.2 45.7204 30.2C49.1738 30.2 52.1838 30.97 54.7504 32.51C57.3638 34.0033 59.3938 36.1733 60.8404 39.02C62.2871 41.8667 63.0104 45.32 63.0104 49.38C63.0104 49.8 62.9638 50.1733 62.8704 50.5C62.7771 50.78 62.4738 50.92 61.9604 50.92H36.0604C35.8271 50.92 35.6404 51.0367 35.5004 51.27C35.4071 51.4567 35.3604 51.7133 35.3604 52.04ZM54.4704 46.51C54.9838 46.51 55.3104 46.44 55.4504 46.3C55.5904 46.16 55.6604 45.9033 55.6604 45.53C55.6604 43.7567 55.2638 42.0767 54.4704 40.49C53.7238 38.9033 52.6271 37.62 51.1804 36.64C49.7804 35.66 48.0304 35.17 45.9304 35.17C43.7371 35.17 41.8471 35.7067 40.2604 36.78C38.7204 37.8067 37.5304 39.1833 36.6904 40.91C35.8971 42.6367 35.5004 44.48 35.5004 46.44L54.4704 46.51ZM55.3104 19.42C55.5438 20.12 55.2638 20.5867 54.4704 20.82L38.4404 25.44C38.0671 25.5333 37.7871 25.5567 37.6004 25.51C37.4138 25.4167 37.2504 25.2067 37.1104 24.88L36.4804 23.06C36.2938 22.4533 36.4104 22.08 36.8304 21.94L53.2104 15.36C53.6304 15.1733 53.9338 15.3367 54.1204 15.85L55.3104 19.42Z" fill="#323649"/>
</g>
</svg>
